<?xml version="1.0" encoding="UTF-8" standalone="no"?>
<!-- Created with Inkscape (http://www.inkscape.org/) -->

<svg
   width="1920"
   height="1080"
   viewBox="0 0 508 285.75"
   version="1.1"
   id="svg5"
   inkscape:version="1.2.1 (9c6d41e410, 2022-07-14)"
   sodipodi:docname="offline.svg"
   xmlns:inkscape="http://www.inkscape.org/namespaces/inkscape"
   xmlns:sodipodi="http://sodipodi.sourceforge.net/DTD/sodipodi-0.dtd"
   xmlns="http://www.w3.org/2000/svg"
   xmlns:svg="http://www.w3.org/2000/svg">
  <sodipodi:namedview
     id="namedview7"
     pagecolor="#ffffff"
     bordercolor="#999999"
     borderopacity="1"
     inkscape:showpageshadow="0"
     inkscape:pageopacity="0"
     inkscape:pagecheckerboard="0"
     inkscape:deskcolor="#d1d1d1"
     inkscape:document-units="mm"
     showgrid="false"
     inkscape:zoom="0.64693624"
     inkscape:cx="682.44747"
     inkscape:cy="754.32472"
     inkscape:window-width="2560"
     inkscape:window-height="1369"
     inkscape:window-x="-8"
     inkscape:window-y="-8"
     inkscape:window-maximized="1"
     inkscape:current-layer="layer1" />
  <defs
     id="defs2" />
  <g
     inkscape:label="Layer 1"
     inkscape:groupmode="layer"
     id="layer1">
    <rect
       style="fill:#000000;fill-rule:evenodd;stroke-width:0.799999;stroke-linecap:round;stroke-miterlimit:6"
       id="rect1256"
       width="508.11005"
       height="285.7215"
       x="-0.28919181"
       y="-0.28919181" />
    <g
       aria-label="OFFLINE"
       id="text1476"
       style="font-size:81.2798px;font-family:'Digital-7 Mono';-inkscape-font-specification:'Digital-7 Mono';fill:#ffffff;fill-rule:evenodd;stroke-width:1.28;stroke-linecap:round;stroke-miterlimit:6">
      <path
         d="m 152.5354,121.88216 h -16.25596 l -2.95563,-2.95563 2.95563,-2.95563 h 16.25596 l 2.95563,2.95563 z m 1.47781,15.51705 v -15.51705 l 2.21673,-2.21672 3.69453,3.69453 v 16.99487 l -1.47781,1.47782 z m 4.43345,5.91126 1.47781,1.47782 v 16.99486 l -3.69453,3.69454 -2.21673,-2.21672 v -15.51706 z m -28.07848,-1.47781 -1.47781,-1.47782 v -16.99487 l 3.69453,-3.69453 2.21673,2.21672 v 15.51705 z m 25.12285,24.38394 -2.95563,2.95563 h -16.25596 l -2.95563,-2.95563 2.95563,-2.95563 h 16.25596 z m -20.6894,-18.47269 v 15.51706 l -2.21673,2.21672 -3.69453,-3.69454 v -16.99486 l 1.47781,-1.47782 z"
         id="path290" />
      <path
         d="m 190.95862,139.61593 2.95563,2.95563 -2.95563,2.95563 h -19.21159 l -2.95563,-2.95563 2.95563,-2.95563 z m 0.73891,-17.73377 h -19.87661 l -5.91125,-2.21672 q 0.7389,-2.95563 3.69453,-3.69454 h 24.31005 z m -19.9505,1.47781 v 14.03924 l -4.43344,4.43345 -1.47781,-1.47782 v -19.21159 z m 0,24.38394 v 15.51706 l -2.21672,5.91126 q -2.95563,-0.73891 -3.69453,-3.69454 v -20.6894 l 1.47781,-1.47782 z"
         id="path292" />
      <path
         d="m 227.90403,139.61593 2.95563,2.95563 -2.95563,2.95563 h -19.21159 l -2.95563,-2.95563 2.95563,-2.95563 z m 0.73891,-17.73377 h -19.87661 l -5.91126,-2.21672 q 0.73891,-2.95563 3.69454,-3.69454 h 24.31005 z m -19.9505,1.47781 v 14.03924 l -4.43344,4.43345 -1.47782,-1.47782 v -19.21159 z m 0,24.38394 v 15.51706 l -2.21672,5.91126 q -2.95563,-0.73891 -3.69454,-3.69454 v -20.6894 l 1.47782,-1.47782 z"
         id="path294" />
      <path
         d="m 245.63785,147.74391 v 15.51706 l -2.21672,5.91126 q -2.95563,-0.73891 -3.69454,-3.69454 v -20.6894 l 1.47782,-1.47782 z m 1.47782,15.51706 h 17.73377 l 5.91126,2.21672 q -0.73891,2.95563 -3.69454,3.69454 h -22.16721 z m -5.91126,-21.42831 -1.47782,-1.47782 v -20.6894 q 0.73891,-2.95563 3.69454,-3.69454 l 2.21672,5.91126 v 15.51705 z"
         id="path296" />
      <path
         d="m 288.49452,137.39921 v -15.51705 l 2.21672,-5.91126 q 2.95563,0.73891 3.69453,3.69454 v 20.6894 l -1.47781,1.47782 z m 4.43344,5.17235 1.47781,1.47782 v 20.6894 q -0.7389,2.95563 -3.69453,3.69454 l -2.21672,-5.91126 v -15.51705 z"
         id="path298" />
      <path
         d="m 319.52866,147.74391 v 15.51706 l -2.21672,5.91126 q -2.95563,-0.73891 -3.69454,-3.69454 v -20.6894 l 1.47782,-1.47782 z m 17.73378,-9.60579 h -5.17236 l -11.0836,-11.08361 v -4.43344 h 4.43344 l 11.82252,11.82251 z m 5.91125,5.17235 1.47782,1.47782 v 20.6894 q -0.73891,2.95563 -3.69454,3.69454 l -2.21672,-5.91126 v -15.51706 z m -4.43344,-5.17235 v -15.51705 l 2.21672,-5.91126 q 2.95563,0.73891 3.69454,3.69454 v 20.6894 l -1.47782,1.47781 z m -23.64503,4.43344 -1.47782,-1.47781 v -20.6894 q 0.73891,-2.95563 3.69454,-3.69454 l 2.21672,5.91126 v 15.51705 z"
         id="path300" />
      <path
         d="m 375.68567,139.61593 2.95563,2.95563 -2.95563,2.95563 h -19.21159 l -2.95563,-2.95563 2.95563,-2.95563 z m 2.95563,29.5563 h -24.38394 q -2.95563,-0.73891 -3.69454,-3.69454 l 5.91126,-2.21672 h 19.9505 z m -28.07848,-5.17235 v -19.21159 l 1.47782,-1.47782 4.43344,4.43344 v 14.03924 z m 25.86176,-42.11772 h -19.87661 l -5.91126,-2.21672 q 0.73891,-2.95563 3.69454,-3.69454 h 24.31005 z m -19.9505,1.47781 v 14.03924 l -4.43344,4.43345 -1.47782,-1.47782 v -19.21159 z"
         id="path302" />
    </g>
  </g>
</svg>
